<?xml version="1.0" standalone="no"?><!DOCTYPE svg PUBLIC "-//W3C//DTD SVG 1.1//EN" "http://www.w3.org/Graphics/SVG/1.1/DTD/svg11.dtd"><svg t="1658370480483" class="icon" viewBox="0 0 1024 1024" version="1.1" xmlns="http://www.w3.org/2000/svg" p-id="2703" xmlns:xlink="http://www.w3.org/1999/xlink" width="200" height="200"><defs><style type="text/css">@font-face { font-family: feedback-iconfont; src: url("//at.alicdn.com/t/font_1031158_u69w8yhxdu.woff2?t=1630033759944") format("woff2"), url("//at.alicdn.com/t/font_1031158_u69w8yhxdu.woff?t=1630033759944") format("woff"), url("//at.alicdn.com/t/font_1031158_u69w8yhxdu.ttf?t=1630033759944") format("truetype"); }
</style></defs><path d="M418.168064 0h187.303903c51.723555 0 93.655951 41.676418 93.655952 93.088 0 51.395583-41.932396 93.072002-93.655952 93.072002H418.160064c-51.723555 0-93.647952-41.676418-93.647952-93.072002C324.512112 41.676418 366.436509 0 418.168064 0z" fill="#4C4F6E" p-id="2704"></path><path d="M652.299943 46.54c25.861778 0 46.827976 20.838209 46.827976 46.548 0 25.701791-20.958199 46.54-46.827976 46.540001-25.861778 0-46.827976-20.838209-46.827976-46.540001 0-25.709791 20.966198-46.548 46.827976-46.548z" fill="#2C2F53" p-id="2705"></path><path d="M418.168064 0h93.647952c51.731554 0 93.655951 41.676418 93.655951 93.088 0 51.395583-41.924397 93.072002-93.655951 93.072002H418.168064c-51.723555 0-93.647952-41.676418-93.647952-93.072002C324.512112 41.676418 366.436509 0 418.168064 0z" fill="#CACAD4" p-id="2706"></path><path d="M371.332089 46.54h187.311903c25.861778 0 46.835975 20.838209 46.835975 46.548 0 25.701791-20.974198 46.54-46.835975 46.540001H371.332089c-25.853778 0-46.819976-20.838209-46.819977-46.540001 0-25.709791 20.958199-46.548 46.819977-46.548z" fill="#999AAC" p-id="2707"></path><path d="M324.512112 93.088h374.607807c77.593332 0 140.491926 62.506628 140.491927 139.620002v651.584004c0 77.113373-62.906594 139.620001-140.483927 139.620002h-374.607807C246.91878 1023.912008 184.028185 961.405379 184.028185 884.292006V232.700002c0-77.113373 62.890595-139.620001 140.483927-139.620001z" fill="#9B002F" p-id="2708"></path><path d="M324.512112 93.088h187.303904c77.593332 0 140.483927 62.506628 140.483927 139.620002v651.584004c0 77.113373-62.898595 139.620001-140.483927 139.620002H324.512112C246.91878 1023.912008 184.028185 961.405379 184.028185 884.292006V232.700002c0-77.113373 62.890595-139.620001 140.483927-139.620001z" fill="#E80035" p-id="2709"></path><path d="M324.512112 139.620001h374.607807c51.731554 0 93.663951 41.676418 93.663951 93.088001v651.584004c0 51.403583-41.932396 93.080001-93.655951 93.080001h-374.607807c-51.731554 0-93.663951-41.676418-93.663951-93.080001V232.700002c0-51.411582 41.932396-93.088 93.655951-93.088z" fill="#FA4659" p-id="2710"></path><path d="M699.127919 139.620001c51.723555 0 93.655951 41.676418 93.655951 93.088001v186.160002C792.775871 470.279585 750.851474 511.956004 699.127919 511.956004c-51.731554 0-93.655951-41.676418-93.655952-93.088V232.708002c0-51.411582 41.924397-93.088 93.655952-93.088001z" fill="#E80035" p-id="2711"></path><path d="M324.512112 511.956004h374.607807c51.731554 0 93.663951 41.676418 93.663951 93.088v279.248002c0 51.411582-41.932396 93.080001-93.655951 93.080001h-374.607807c-51.731554 0-93.663951-41.676418-93.663951-93.080001v-279.256001C230.856161 553.632422 272.788557 511.956004 324.512112 511.956004z" fill="#11CBE5" p-id="2712"></path><path d="M394.746077 232.700002c38.796666 0 70.241964 31.261313 70.241963 69.818v139.620002c0 38.556687-31.437298 69.818-70.233964 69.818s-70.233964-31.253314-70.233964-69.818V302.518002c0-38.556687 31.437298-69.810001 70.233964-69.81z" fill="#FEDEE1" p-id="2713"></path><path d="M394.746077 605.044004c38.796666 0 70.241964 31.253314 70.241963 69.802001v46.548c0 38.556687-31.437298 69.810001-70.233964 69.810001s-70.233964-31.253314-70.233964-69.810001v-46.548c0-38.556687 31.437298-69.802001 70.233964-69.802001z" fill="#91EDF8" p-id="2714"></path><path d="M699.127919 511.956004C750.851474 511.956004 792.775871 553.632422 792.775871 605.044004v279.248002c0 51.411582-41.932396 93.080001-93.655952 93.080001-51.731554 0-93.655951-41.676418-93.655951-93.080001v-279.256001C605.471967 553.632422 647.396364 511.956004 699.127919 511.956004z" fill="#00AACC" p-id="2715"></path></svg>