<?xml version="1.0" standalone="no"?><!DOCTYPE svg PUBLIC "-//W3C//DTD SVG 1.1//EN" "http://www.w3.org/Graphics/SVG/1.1/DTD/svg11.dtd"><svg t="1657762628850" class="icon" viewBox="0 0 1024 1024" version="1.1" xmlns="http://www.w3.org/2000/svg" p-id="2331" xmlns:xlink="http://www.w3.org/1999/xlink" width="200" height="200"><defs><style type="text/css">@font-face { font-family: feedback-iconfont; src: url("//at.alicdn.com/t/font_1031158_u69w8yhxdu.woff2?t=1630033759944") format("woff2"), url("//at.alicdn.com/t/font_1031158_u69w8yhxdu.woff?t=1630033759944") format("woff"), url("//at.alicdn.com/t/font_1031158_u69w8yhxdu.ttf?t=1630033759944") format("truetype"); }
</style></defs><path d="M298.667 192h42.666v63.979l-42.666 0.021v533.333h426.666V256h-42.666v-64h42.666a64 64 0 0 1 64 64v533.333a64 64 0 0 1-64 64H298.667a64 64 0 0 1-64-64V256a64 64 0 0 1 64-64z m256 341.333v64h-192v-64h192z m106.666-128v64H362.667v-64h298.666zM576 128a64 64 0 0 1 64 64v42.667a64 64 0 0 1-64 64H448a64 64 0 0 1-64-64V192a64 64 0 0 1 64-64h128z m0 64H448v42.667h128V192z" p-id="2332"></path></svg>